<svg width="36" height="36" viewBox="0 0 36 36" fill="none" xmlns="http://www.w3.org/2000/svg">
<path d="M28.4996 16.5H11.7446L19.0646 9.17999C19.6496 8.59499 19.6496 7.63499 19.0646 7.04999C18.9259 6.91094 18.761 6.80062 18.5796 6.72534C18.3981 6.65007 18.2036 6.61133 18.0071 6.61133C17.8107 6.61133 17.6162 6.65007 17.4347 6.72534C17.2532 6.80062 17.0884 6.91094 16.9496 7.04999L7.06464 16.935C6.92559 17.0738 6.81527 17.2386 6.73999 17.4201C6.66472 17.6015 6.62598 17.796 6.62598 17.9925C6.62598 18.1889 6.66472 18.3835 6.73999 18.5649C6.81527 18.7464 6.92559 18.9112 7.06464 19.05L16.9496 28.935C17.0885 29.0739 17.2534 29.184 17.4348 29.2592C17.6163 29.3343 17.8107 29.373 18.0071 29.373C18.2035 29.373 18.398 29.3343 18.5795 29.2592C18.7609 29.184 18.9258 29.0739 19.0646 28.935C19.2035 28.7961 19.3137 28.6313 19.3888 28.4498C19.464 28.2684 19.5027 28.0739 19.5027 27.8775C19.5027 27.6811 19.464 27.4866 19.3888 27.3052C19.3137 27.1237 19.2035 26.9589 19.0646 26.82L11.7446 19.5H28.4996C29.3246 19.5 29.9996 18.825 29.9996 18C29.9996 17.175 29.3246 16.5 28.4996 16.5Z" fill="#36363D"/>
</svg>
