<svg width="66" height="99" viewBox="0 0 66 99" fill="none" xmlns="http://www.w3.org/2000/svg">
<g clip-path="url(#clip0_434_15241)">
<path d="M33 99C14.7705 99 0 84.2843 0 66.1225V44.392C0 38.8062 4.54918 34.2739 10.1557 34.2739H55.8443C61.4508 34.2739 66 38.8062 66 44.392V66.1225C66 84.2761 51.2213 99 33 99Z" fill="#5524BE"/>
<path d="M13 36.9995V24.7793C13 13.8525 21.9515 4.99951 33 4.99951C44.0485 4.99951 53 13.8525 53 24.7793V36.9995" stroke="#5524BE" stroke-width="8.26" stroke-miterlimit="10"/>
<path d="M32.9997 83.9578C43.7194 83.9578 52.4095 75.3 52.4095 64.62C52.4095 53.94 43.7194 45.2822 32.9997 45.2822C22.2799 45.2822 13.5898 53.94 13.5898 64.62C13.5898 75.3 22.2799 83.9578 32.9997 83.9578Z" stroke="#8B9CFC" stroke-width="5.51" stroke-miterlimit="10"/>
<path d="M35.631 65.4364H35.5491C37.6802 64.4646 39.172 62.3332 39.1638 59.8507C39.1638 56.4617 36.3933 53.7096 32.9917 53.7178C29.5901 53.7178 26.8278 56.478 26.836 59.867C26.836 62.4231 28.4097 64.6116 30.6392 65.5344L27.8114 73.0556C26.9425 75.3666 28.6146 77.841 31.0245 77.841H35.0327C37.4015 77.8329 39.0573 75.432 38.2704 73.1454L35.6146 65.4446L35.631 65.4364Z" fill="white"/>
</g>
<defs>
<clipPath id="clip0_434_15241">
<rect width="66" height="99" fill="white"/>
</clipPath>
</defs>
</svg>
