<svg width="97" height="57" viewBox="0 0 97 57" fill="none" xmlns="http://www.w3.org/2000/svg">
<path d="M18.7023 33.7359H8.68262V31.8431H12.5091V29.019H14.845V31.8431H18.7023V33.7359ZM20.2698 28.8969H22.498V48.1004H20.2698V41.9791H17.6265C16.9196 43.5972 15.4751 44.6047 13.6617 44.5742C11.1107 44.5742 9.31269 42.5897 9.31269 39.7657C9.31269 36.8653 11.1261 34.8961 13.6617 34.8961C16.2127 34.8961 18.0415 36.8806 18.0415 39.7657C18.0415 39.8573 18.0415 39.9641 18.0415 40.0862H20.2698V37.1859H17.7034V35.293H20.2698V28.8969ZM15.9515 39.7657C15.9515 38.0102 15.014 36.8653 13.6617 36.8653C12.3094 36.8653 11.3719 38.0102 11.3719 39.7657C11.3719 41.4906 12.3094 42.6203 13.6617 42.6203C15.014 42.6203 15.9515 41.4906 15.9515 39.7657ZM26.4168 28.4847V49.0774H24.1731V28.4847H26.4168Z" fill="#1E1E1C"/>
<path d="M35.5758 40.1473C32.4562 40.1473 30.0742 38.0102 30.0742 35.003C30.0742 31.9957 32.4562 29.8739 35.5758 29.8739C38.7108 29.8739 41.1081 31.9957 41.1081 35.003C41.1081 38.0102 38.7262 40.1473 35.5758 40.1473ZM35.5758 38.1323C37.3892 38.1323 38.7876 36.8958 38.7876 35.0182C38.7876 33.1559 37.3892 31.9194 35.5758 31.9194C33.7624 31.9194 32.3947 33.1559 32.3947 35.0182C32.3947 36.8958 33.7624 38.1323 35.5758 38.1323ZM35.2531 46.7571H46.8095V48.6652H32.8711V42.0096H35.2531V46.7571ZM48.9302 34.5908V36.5295H45.995V43.5667H43.6284V28.4847H45.995V34.5908H48.9302Z" fill="#1E1E1C"/>
<g opacity="0.9">
<path d="M59.7644 43.6888C59.749 43.7498 59.5646 44.1467 59.2111 44.91C58.8423 45.6732 58.3505 46.3602 57.7205 46.9708L56.8906 46.3907C57.5975 45.8412 58.1354 45.2153 58.5042 44.4826C58.8269 43.7498 59.0113 43.3835 59.0113 43.3682C59.0113 43.3682 59.1343 43.4293 59.3802 43.5056C59.6107 43.6277 59.749 43.6735 59.7644 43.6888ZM63.8982 42.6965H59.4109V42.0096H70.2297V40.651H57.4592V39.903H70.2297V38.5444H59.5185V37.8575H71.0902V39.9183H73.6566V40.6663H71.0902V42.7271H64.682C64.9586 42.9408 65.2506 43.2003 65.5426 43.4903C65.8345 43.7956 66.2034 44.2688 66.6644 44.9252L65.8038 45.4748C65.4042 44.7726 65.0354 44.2078 64.6666 43.7956C64.2824 43.414 63.9751 43.1087 63.7292 42.8797L63.8982 42.6965ZM61.2243 37.3232V36.2699L57.8588 36.4989L57.5975 35.6593L61.2243 35.5067V34.1633H58.1815V33.5069H61.2243V32.2399H57.9817V31.5683H61.2243C61.2243 30.5913 61.2243 30.0723 61.2243 30.057L62.2693 30.3165C62.2693 30.3318 62.2385 30.4081 62.1617 30.5608C62.0849 30.7287 62.0541 30.8813 62.0541 31.034V31.5835H64.9586V32.2552H62.0541V33.5222H64.8356V34.1786H62.0541V35.4914L65.0354 35.2929V36.0104L62.0541 36.2241V37.3385H61.2243V37.3232ZM70.3833 45.139C70.3833 45.1542 70.3219 45.3985 70.245 45.8259C70.1375 46.2686 69.7994 46.6197 69.2615 46.9555C68.5853 47.3219 67.3559 47.5051 65.5733 47.4898C63.7753 47.4593 62.6842 47.3829 62.3 47.2455C61.4548 46.9402 61.086 45.7954 61.1628 43.7804L62.1463 43.8872L62.1156 45.1848C62.1002 45.5053 62.131 45.8106 62.2232 46.0701C62.3 46.3296 62.6227 46.4823 63.176 46.5586C63.7292 46.6349 64.4361 46.6502 65.3428 46.6502C66.2187 46.6349 66.9717 46.5891 67.5711 46.5281C68.3702 46.4212 68.8927 46.2381 69.0771 45.9785C69.2615 45.719 69.3998 45.3985 69.5228 45.0016L70.3833 45.139ZM68.8619 37.3079V36.2699H65.5272V35.5219H68.8619V34.1633H66.0651V33.4764H68.8619V32.301H65.6501V31.5835H68.8619C68.8619 31.5835 68.8619 31.324 68.8619 30.8355C68.8619 30.3623 68.8619 30.1028 68.8619 30.0875L69.953 30.3776C69.953 30.3928 69.9223 30.4539 69.8455 30.515C69.7686 30.6218 69.7225 30.7592 69.6918 30.9119V31.5683H72.9343V32.2857H69.6918V33.4611H72.5348V34.1481H69.7072V35.5067H73.1956V36.2547H69.7072V37.2927H68.8619V37.3079ZM73.6566 46.0091L72.8421 46.5586C72.7038 46.2075 72.3965 45.7648 71.9662 45.1695C71.5205 44.5894 70.998 44.0551 70.3833 43.5514L70.9366 43.1392C71.5052 43.4598 72.0123 43.872 72.458 44.3452C72.8882 44.8489 73.2878 45.3832 73.6566 46.0091Z" fill="#737070"/>
<path d="M77.0527 46.6654V31.5224H81.4632V46.6654H77.0527ZM77.9133 32.3162V36.2851H80.6487V32.3162H77.9133ZM77.9133 37.0789V40.9868H80.6487V37.0789H77.9133ZM77.9133 41.7501V45.8869H80.6487V41.7501H77.9133ZM87.1031 38.7276C87.2107 39.7045 87.4566 40.5594 87.7947 41.2921C88.1174 42.0401 88.2864 42.4217 88.3018 42.4217L91.4214 40.1625L91.9746 40.9257L88.7167 43.1087C89.6541 44.5588 90.5608 45.5358 91.4675 46.009C92.3435 46.4823 92.8045 46.7112 92.8198 46.7112L92.1129 47.4898C91.99 47.4287 91.1294 46.8334 89.5466 45.6732C87.9483 44.5131 86.888 42.1928 86.3347 38.7276H84.4906V45.8259L87.8408 44.5283V45.3526L82.4928 47.5203C82.4775 47.4898 82.4006 47.3524 82.2777 47.1081C82.1394 46.8486 82.0779 46.7112 82.0779 46.7112L83.6608 46.1617V31.0187H90.776V38.7276H87.1031ZM84.4906 31.7667V34.4839H89.9154V31.7667H84.4906ZM84.4906 35.2166V37.9796H89.9154V35.2166H84.4906Z" fill="#737070"/>
</g>
<path d="M32.5332 12.3648C32.6254 12.4564 32.7176 12.548 32.8252 12.6396C32.9328 12.7312 33.025 12.8228 33.1172 12.9144C33.194 13.0059 33.2708 13.0823 33.3477 13.1433C33.4245 13.2044 33.4706 13.2502 33.5013 13.2655C33.5321 13.296 33.5628 13.3112 33.5936 13.3265C33.6243 13.3418 33.655 13.357 33.6704 13.3723C33.7011 13.3723 33.7165 13.3876 33.7472 13.3876C33.778 13.3876 33.7933 13.4028 33.8087 13.4028C33.8241 13.4181 33.8548 13.4334 33.8702 13.4486C33.9009 13.4639 33.9163 13.4792 33.9316 13.4944C33.947 13.5097 33.9777 13.5402 33.9931 13.5555C34.0085 13.586 34.0392 13.6013 34.0546 13.6318C34.1622 13.7692 34.2544 13.9371 34.3312 14.0898C34.408 14.2577 34.4541 14.3645 34.4849 14.4256C34.5463 14.6088 34.5617 14.7462 34.5463 14.853C34.531 14.9599 34.4695 15.0362 34.408 15.0667C34.3312 15.0973 34.2544 15.082 34.1314 15.0209C34.0238 14.9599 33.9009 14.8378 33.7933 14.6698C33.7165 14.563 33.6089 14.4256 33.486 14.2729C33.363 14.105 33.2247 13.9371 33.0711 13.7692C32.9327 13.6013 32.7791 13.4334 32.6408 13.2655C32.5025 13.0975 32.3642 12.9601 32.2719 12.8533C31.98 13.2349 31.6726 13.6165 31.3345 13.9982C30.9964 14.3798 30.643 14.7004 30.2588 14.9599C29.9975 15.1736 29.8131 15.2347 29.7363 15.1583C29.6441 15.082 29.6748 14.9751 29.8131 14.8378C30.0898 14.5935 30.3664 14.3035 30.6276 13.9676C30.8889 13.6318 31.1347 13.2655 31.3499 12.8838C31.565 12.5022 31.7648 12.1206 31.9185 11.7389C32.0722 11.3573 32.1951 10.9909 32.2566 10.6551C32.2873 10.4872 32.2719 10.3803 32.2258 10.304C32.1797 10.243 32.0722 10.1666 31.9031 10.075C31.7341 9.98345 31.6572 9.89186 31.688 9.785C31.7187 9.69341 31.8263 9.64761 31.9953 9.66288C32.1797 9.67814 32.3795 9.72394 32.5947 9.76974C32.8252 9.81553 33.025 9.87659 33.2094 9.95292C33.3323 10.014 33.3938 10.075 33.4245 10.1514C33.4552 10.2277 33.4399 10.304 33.4245 10.3803C33.4091 10.3956 33.3938 10.4261 33.3938 10.4567C33.3784 10.4872 33.3784 10.5177 33.363 10.533C33.3477 10.5635 33.3323 10.5941 33.3323 10.6246C33.3169 10.6551 33.3169 10.6856 33.3016 10.7009C33.2247 10.9452 33.1172 11.2047 32.9789 11.4794C32.8405 11.8305 32.7022 12.1053 32.5332 12.3648ZM35.453 12.5175C35.3608 12.5175 35.2686 12.5327 35.1918 12.5633C35.0996 12.5785 35.0227 12.6091 34.9613 12.6396C34.823 12.7006 34.7 12.7312 34.6078 12.7312C34.5002 12.7312 34.408 12.7159 34.3158 12.6701C34.239 12.6548 34.1314 12.609 33.9777 12.548C33.8241 12.4869 33.7011 12.4106 33.5936 12.3343C33.4552 12.2427 33.3938 12.1511 33.4245 12.0748C33.4552 11.9984 33.5475 11.9679 33.7165 11.9832C33.8241 11.9984 33.9777 12.0137 34.1775 12.0137C34.3773 12.0137 34.5617 12.029 34.7308 12.029C34.7769 12.029 34.823 12.029 34.8691 12.029C34.9305 12.029 34.9766 12.029 35.0535 12.029C35.1149 12.029 35.1764 12.029 35.2533 12.029C35.3301 12.029 35.3916 12.029 35.4838 12.029V10.2735C35.4838 10.1056 35.4684 9.96818 35.4377 9.84606C35.4069 9.72394 35.3455 9.63235 35.2686 9.57129C35.1918 9.51023 35.0842 9.44917 34.9613 9.40337C34.8383 9.35758 34.7154 9.31178 34.5771 9.28125C34.5156 9.28125 34.4849 9.25072 34.4695 9.20493C34.4541 9.15913 34.4388 9.11334 34.4541 9.06754C34.4695 9.02174 34.5002 8.97595 34.531 8.94542C34.5771 8.91489 34.6385 8.88436 34.7154 8.88436C34.9613 8.89962 35.2225 8.93015 35.4991 8.96068C35.7757 8.99121 36.037 9.05227 36.2829 9.1286C36.329 9.14387 36.3751 9.18966 36.3905 9.25072C36.4212 9.31178 36.4212 9.37284 36.4058 9.44917C36.3751 9.52549 36.3597 9.63235 36.3443 9.72394C36.329 9.8308 36.329 9.93765 36.329 10.0445V15.4789C36.329 16.2269 36.2982 16.8222 36.2214 17.2649C36.1446 17.7076 36.0216 17.9366 35.8526 17.9366C35.7757 17.9366 35.7143 17.8908 35.6682 17.7992C35.6221 17.6923 35.5913 17.555 35.5606 17.387C35.5299 17.2191 35.5145 17.0207 35.4991 16.7917C35.4838 16.578 35.4838 16.3337 35.4838 16.1048V12.5175H35.453ZM38.0655 9.57129V15.8453C38.0655 16.5933 38.0348 17.1886 37.9426 17.6313C37.8504 18.074 37.7274 18.3029 37.5584 18.3029C37.4815 18.3029 37.4201 18.2571 37.374 18.1656C37.3279 18.0587 37.2971 17.9213 37.2664 17.7534C37.2357 17.5855 37.2203 17.387 37.2203 17.1581C37.2203 16.9291 37.2049 16.7001 37.2049 16.4559V9.76974C37.2049 9.60182 37.1896 9.46443 37.1588 9.35758C37.1281 9.25072 37.0666 9.15913 36.9744 9.09807C36.8822 9.03701 36.7746 8.97595 36.6363 8.91489C36.498 8.85383 36.3597 8.8233 36.206 8.79277C36.1446 8.79277 36.1138 8.76224 36.0985 8.71644C36.0831 8.67065 36.0677 8.62485 36.0831 8.57906C36.0985 8.53326 36.1292 8.48747 36.1599 8.45693C36.206 8.41114 36.2675 8.39587 36.3443 8.39587C36.5902 8.41114 36.8822 8.44167 37.1896 8.4722C37.4969 8.518 37.7735 8.56379 38.0348 8.65538C38.0809 8.67065 38.1116 8.71644 38.1424 8.7775C38.1731 8.83856 38.1731 8.89962 38.1577 8.97595C38.127 9.06754 38.0962 9.1744 38.0809 9.28125C38.0809 9.35758 38.0655 9.46443 38.0655 9.57129Z" fill="#1E1E1C"/>
<path d="M44.7655 14.2577V15.8453C44.7655 16.5933 44.7194 17.1886 44.6119 17.6313C44.5043 18.074 44.366 18.303 44.1969 18.303C44.1201 18.303 44.0586 18.2572 43.9972 18.1656C43.9357 18.0587 43.905 17.9213 43.8742 17.7534C43.8435 17.5855 43.8128 17.3871 43.7974 17.1733C43.782 16.9444 43.782 16.7154 43.782 16.4712V14.2577C43.4439 14.2577 43.1212 14.273 42.7985 14.2882C42.4758 14.3035 42.2299 14.3188 42.0455 14.3493C41.984 14.3493 41.9225 14.3646 41.8764 14.3798C41.815 14.3951 41.7689 14.4104 41.7228 14.4104C41.6767 14.4256 41.6306 14.4409 41.5845 14.4562C41.5384 14.4714 41.5076 14.4867 41.4615 14.4867C41.3539 14.5172 41.2464 14.5477 41.1234 14.5477C41.0005 14.563 40.8468 14.5325 40.647 14.4867C40.5241 14.4714 40.3704 14.4256 40.2167 14.3646C40.0477 14.3035 39.8633 14.2272 39.6789 14.1203C39.4637 14.0135 39.3869 13.9066 39.4176 13.7998C39.4484 13.6929 39.602 13.6624 39.8633 13.6929C40.1706 13.7387 40.5087 13.754 40.8775 13.7692C41.231 13.7845 41.5845 13.7845 41.9225 13.7845C42.1684 13.7845 42.4758 13.7845 42.8446 13.7845C43.2134 13.7845 43.5976 13.7845 43.9972 13.7692C44.3967 13.7692 44.7809 13.7692 45.1651 13.754C45.5493 13.754 45.872 13.7387 46.1333 13.7387C46.2716 13.7387 46.4252 13.7234 46.5482 13.6776C46.6865 13.6471 46.7787 13.6166 46.8248 13.586C46.8863 13.5708 46.9324 13.5555 46.9938 13.5402C47.0553 13.525 47.1168 13.5097 47.1629 13.5097C47.3473 13.4945 47.5163 13.4945 47.7007 13.4945C47.8852 13.4945 48.0542 13.5097 48.254 13.525C48.4691 13.5402 48.6228 13.586 48.7304 13.6471C48.8379 13.7082 48.8994 13.7998 48.8994 13.9066C48.884 14.044 48.8226 14.1356 48.6996 14.1814C48.5767 14.2272 48.423 14.2424 48.2232 14.2424C48.0235 14.2424 47.793 14.2424 47.5163 14.2424C47.2397 14.2424 46.9324 14.2424 46.625 14.2424C46.3177 14.2424 45.9949 14.2424 45.6722 14.2424C45.3341 14.2577 45.0422 14.2577 44.7655 14.2577ZM41.5537 9.86135C41.5384 9.75449 41.4923 9.6629 41.4 9.60184C41.3078 9.54078 41.1542 9.47972 40.939 9.43392C40.8314 9.40339 40.7853 9.34233 40.8161 9.22021C40.8468 9.09809 40.9237 9.03703 41.062 9.02177C41.2464 9.02177 41.4923 9.02177 41.7842 9.03703C42.0762 9.0523 42.3682 9.08283 42.6448 9.12862C42.7524 9.12862 42.9522 9.12862 43.2288 9.12862C43.5054 9.12862 43.7974 9.12862 44.1047 9.11336C44.4121 9.11336 44.7041 9.09809 44.9807 9.09809C45.2573 9.09809 45.4417 9.08283 45.5647 9.0523C45.6108 9.0523 45.6415 9.0523 45.6722 9.03703C45.703 9.02177 45.7183 9.02177 45.7337 9.0065C45.7491 9.0065 45.7798 9.0065 45.7952 8.99124C45.8105 8.97597 45.8413 8.97597 45.8566 8.96071C45.872 8.96071 45.8874 8.94544 45.9027 8.94544C45.9181 8.94544 45.9488 8.93018 45.9796 8.93018C46.1179 8.93018 46.2716 8.93018 46.4406 8.93018C46.5943 8.93018 46.748 8.94544 46.8709 8.97597C46.9938 9.0065 47.0707 9.06756 47.086 9.14389C47.1014 9.22021 47.086 9.29654 47.0399 9.3576C47.0246 9.38813 46.9938 9.41866 46.9785 9.44919C46.9631 9.47972 46.9324 9.51025 46.917 9.54078C46.9016 9.58658 46.8863 9.61711 46.8709 9.6629C46.8555 9.69343 46.8402 9.73923 46.8402 9.78502L46.5328 11.8306C46.6557 11.8306 46.7633 11.8458 46.8402 11.8916C46.917 11.9374 46.9631 11.9985 46.9631 12.0748C46.9631 12.1511 46.917 12.2274 46.8248 12.2732C46.7326 12.319 46.625 12.3343 46.4713 12.3343C46.2255 12.3343 45.8874 12.3343 45.4878 12.3496C45.0883 12.3496 44.6887 12.3648 44.2738 12.3648C43.8742 12.3648 43.5208 12.3801 43.1981 12.3801C42.8753 12.3801 42.6756 12.3954 42.5833 12.3954C42.568 12.548 42.5065 12.6701 42.4143 12.7312C42.3221 12.7923 42.2453 12.8228 42.1684 12.8228C42.107 12.8228 42.0301 12.777 41.9379 12.7007C41.8457 12.6243 41.7842 12.4564 41.7842 12.2427L41.5537 9.86135ZM45.8413 9.55605L42.5219 9.58658L42.6141 11.8763L45.7644 11.8306L45.8413 9.55605Z" fill="#1E1E1C"/>
<path d="M57.2749 9.58655V12.1053C57.2749 12.6396 57.2134 13.0823 57.1058 13.4181C56.9982 13.7539 56.8753 13.9371 56.7524 13.9371C56.6294 13.9371 56.5372 13.815 56.4757 13.5555C56.4143 13.296 56.3989 12.9754 56.3989 12.5938V11.4947C56.3374 11.4947 56.2913 11.4947 56.2606 11.4947C56.2299 11.4947 56.1991 11.4947 56.1838 11.4947C56.1223 11.51 56.0301 11.5252 55.9225 11.5558C55.8149 11.5863 55.7074 11.6168 55.6152 11.6473C55.4769 11.7084 55.3385 11.7389 55.231 11.7389C55.1234 11.7389 55.0158 11.7237 54.9236 11.6779C54.8929 11.6779 54.8622 11.6626 54.8161 11.6473C54.7699 11.6321 54.7085 11.6168 54.6163 11.6168V12.8075C54.6163 13.0365 54.5548 13.2502 54.4472 13.4486C54.3397 13.6471 54.2167 13.7387 54.1245 13.7387C54.063 13.7387 54.0169 13.7234 53.9862 13.6929C53.9401 13.6623 53.9094 13.6318 53.8786 13.6013C53.8479 13.5555 53.8325 13.525 53.8018 13.4792C53.7864 13.4334 53.7711 13.4028 53.7557 13.3723L51.3122 13.4181C51.2969 13.4486 51.2815 13.4944 51.2508 13.5402C51.22 13.586 51.1893 13.6318 51.1586 13.6776C51.1125 13.7234 51.0664 13.7692 51.0203 13.7997C50.9742 13.8303 50.9127 13.8608 50.8512 13.8608C50.759 13.8761 50.6668 13.815 50.5746 13.6623C50.4978 13.525 50.4517 13.2807 50.4517 12.9449V10.6246C50.4517 10.5483 50.4517 10.4719 50.4363 10.3956C50.4209 10.304 50.3902 10.243 50.3287 10.1819C50.2673 10.1208 50.175 10.075 50.0521 10.0445C49.9292 9.99871 49.8216 9.98345 49.6987 9.95292C49.6525 9.95292 49.6218 9.93765 49.6218 9.89186C49.6064 9.84606 49.6064 9.80027 49.6064 9.75447C49.6064 9.70868 49.6218 9.66288 49.6526 9.61708C49.6833 9.57129 49.7294 9.55602 49.7909 9.54076C49.9753 9.54076 50.2212 9.54076 50.5131 9.57129C50.8051 9.60182 51.0664 9.63235 51.2661 9.67815C51.3122 9.69341 51.343 9.73921 51.3584 9.80027C51.3891 9.86133 51.3891 9.93765 51.3584 9.99871C51.3584 10.014 51.343 10.0445 51.343 10.075C51.343 10.1056 51.3276 10.1361 51.3276 10.1819C51.3276 10.2124 51.3276 10.2582 51.3276 10.2888C51.3276 10.3345 51.3276 10.3651 51.3276 10.4109V10.8536L53.7403 10.8078V10.1972C53.7403 10.1361 53.725 10.0598 53.7096 9.96818C53.6942 9.89186 53.6635 9.81553 53.602 9.75447C53.5405 9.69341 53.4483 9.64761 53.31 9.61708C53.1717 9.57129 53.0488 9.54076 52.9258 9.52549C52.8797 9.52549 52.849 9.51023 52.8336 9.46443C52.8183 9.41864 52.8183 9.37284 52.8183 9.32705C52.8183 9.28125 52.849 9.23546 52.8797 9.18966C52.9105 9.14387 52.9566 9.1286 53.018 9.11334C53.1102 9.11334 53.2178 9.11334 53.3561 9.1286C53.4944 9.1286 53.6327 9.14387 53.7711 9.15913C53.9094 9.1744 54.063 9.18966 54.186 9.20493C54.3243 9.22019 54.4472 9.25072 54.5394 9.26599C54.5855 9.28125 54.6163 9.32705 54.6316 9.38811C54.6624 9.44917 54.6624 9.52549 54.6316 9.58655C54.6316 9.60182 54.6163 9.63235 54.6163 9.66288C54.6163 9.69341 54.6009 9.73921 54.6009 9.76974C54.6009 9.81553 54.6009 9.86133 54.6009 9.90712C54.6009 9.95292 54.6009 9.99871 54.6009 10.0292V10.9452C54.6624 10.9452 54.7392 10.9604 54.8007 10.9604C54.8622 10.9604 54.9236 10.9604 55.0005 10.9604C55.0619 10.9604 55.1234 10.9604 55.1849 10.9604C55.2463 10.9604 55.2924 10.9604 55.3539 10.9604C55.4154 10.9604 55.4922 10.9604 55.5691 10.9604C55.6459 10.9604 55.7227 10.9604 55.8149 10.9604C55.8918 10.9604 55.984 10.9604 56.0762 10.9604C56.1684 10.9604 56.276 10.9452 56.3682 10.9452V9.76974C56.3682 9.60182 56.3528 9.46443 56.3221 9.35758C56.2913 9.25072 56.2299 9.15913 56.1377 9.09807C56.0147 9.02174 55.8764 8.94542 55.7227 8.89962C55.5691 8.85383 55.4154 8.80803 55.2771 8.79277C55.2156 8.79277 55.1849 8.76224 55.1695 8.71644C55.1541 8.67065 55.1388 8.62485 55.1541 8.57906C55.1541 8.53326 55.1849 8.48747 55.231 8.45693C55.2771 8.41114 55.3385 8.39587 55.4154 8.39587C55.6766 8.39587 55.984 8.4264 56.3374 8.4722C56.6909 8.518 56.9982 8.57906 57.2441 8.65538C57.2902 8.67065 57.321 8.71644 57.3517 8.7775C57.3824 8.83856 57.3824 8.89962 57.3671 8.97595C57.3363 9.0828 57.3056 9.18966 57.2902 9.29652C57.2902 9.37284 57.2749 9.4797 57.2749 9.58655ZM53.7403 11.3573L51.3276 11.4031V12.9144L53.7403 12.8686V11.3573ZM57.2595 14.9294V16.9901C57.2595 17.2954 57.2134 17.555 57.1058 17.7534C56.9982 17.9518 56.8753 18.0434 56.737 18.0434C56.6141 18.0434 56.5218 17.9976 56.4604 17.9061C56.3989 17.8145 56.3682 17.7381 56.3682 17.6771L53.4637 17.6923C53.433 17.7534 53.3715 17.845 53.2947 17.9824C53.2025 18.1045 53.0949 18.1808 52.9719 18.1808C52.849 18.1808 52.7568 18.1045 52.68 17.9671C52.6031 17.8297 52.5724 17.5855 52.5724 17.2344V15.4636C52.5724 15.4026 52.557 15.311 52.5416 15.2347C52.5263 15.1431 52.4802 15.082 52.4187 15.0209C52.3572 14.9599 52.2958 14.9141 52.1882 14.8836C52.096 14.853 51.9884 14.8225 51.8808 14.792C51.8347 14.792 51.804 14.7767 51.804 14.7309C51.7886 14.6851 51.7886 14.6546 51.7886 14.6088C51.7886 14.563 51.8194 14.5172 51.8501 14.4867C51.8808 14.4561 51.9269 14.4256 51.9884 14.4256C52.1728 14.4256 52.4033 14.4409 52.6646 14.4561C52.9258 14.4867 53.1564 14.5172 53.3715 14.563C53.4176 14.5783 53.4483 14.624 53.4637 14.6851C53.4944 14.7462 53.4944 14.8225 53.4637 14.8836C53.4637 14.8988 53.4483 14.9141 53.4483 14.9294C53.4483 14.9446 53.4483 14.9751 53.4483 14.9904C53.4483 15.0209 53.433 15.0515 53.433 15.082C53.433 15.1125 53.433 15.1431 53.433 15.1736V15.4178L56.3682 15.4026V15.1278C56.3682 15.0515 56.3528 14.9904 56.3374 14.8988C56.3221 14.8225 56.276 14.7462 56.2145 14.6851C56.153 14.624 56.0762 14.5783 55.9686 14.5477C55.861 14.5019 55.7535 14.4714 55.6305 14.4561C55.5844 14.4561 55.5537 14.4409 55.5383 14.3951C55.523 14.3493 55.523 14.3035 55.523 14.2577C55.523 14.2119 55.5537 14.1661 55.5844 14.1203C55.6152 14.0745 55.6613 14.0592 55.7227 14.044C55.9071 14.044 56.153 14.0592 56.4296 14.0898C56.7216 14.1203 56.9675 14.1508 57.1673 14.1966C57.2134 14.2119 57.2441 14.2577 57.2595 14.3187C57.2902 14.3798 57.2902 14.4561 57.2595 14.5172C57.2595 14.5325 57.2441 14.5477 57.2441 14.5783C57.2441 14.6088 57.2288 14.6393 57.2288 14.6698C57.2288 14.7156 57.2288 14.7462 57.2288 14.792C57.2595 14.853 57.2595 14.8988 57.2595 14.9294ZM56.3682 17.1581V15.9368L53.433 15.9521V17.1733L56.3682 17.1581Z" fill="#1E1E1C"/>
<path d="M62.0239 9.63235C62.7001 9.63235 63.2533 9.81553 63.6836 10.1972C64.1139 10.5788 64.329 11.0825 64.329 11.7084C64.329 12.0137 64.2675 12.3037 64.16 12.5633C64.0524 12.8228 63.8834 13.0365 63.6836 13.2197C63.4838 13.4028 63.2379 13.5402 62.9613 13.6318C62.6693 13.7387 62.362 13.7845 62.0393 13.7845C61.7012 13.7845 61.3938 13.7387 61.1018 13.6318C60.8252 13.5402 60.5793 13.3876 60.3642 13.2197C60.1644 13.0365 60.0107 12.8228 59.8878 12.5633C59.7802 12.3037 59.7188 12.0137 59.7188 11.7084C59.7188 11.3878 59.7802 11.0978 59.8878 10.8536C59.9954 10.5941 60.1644 10.3803 60.3642 10.1972C60.5793 10.014 60.8098 9.87659 61.1018 9.785C61.3784 9.67814 61.6858 9.63235 62.0239 9.63235ZM62.0239 10.2124C61.5936 10.2124 61.2401 10.3498 60.9943 10.6398C60.7484 10.9299 60.6254 11.281 60.6254 11.7084C60.6254 12.1358 60.7484 12.4869 60.9943 12.7617C61.2401 13.0517 61.5936 13.1891 62.0239 13.1891C62.4542 13.1891 62.7923 13.0517 63.0535 12.7617C63.2994 12.4717 63.4377 12.1206 63.4377 11.7084C63.4377 11.281 63.3148 10.9299 63.0535 10.6398C62.8076 10.3498 62.4695 10.2124 62.0239 10.2124ZM63.3455 15.8911V16.9901C63.3455 17.1123 63.3916 17.2039 63.4684 17.2497C63.5453 17.2954 63.6375 17.3107 63.745 17.3107L65.6045 17.2954C65.7121 17.2954 65.835 17.2802 65.9733 17.2649C66.1116 17.2497 66.25 17.2039 66.3883 17.1428C66.4036 17.1275 66.4497 17.1123 66.4958 17.0817C66.5419 17.0512 66.6034 17.0359 66.6649 17.0359C66.8032 17.0359 66.9569 17.0359 67.0952 17.0359C67.2489 17.0359 67.3872 17.0512 67.5101 17.0665C67.6484 17.0817 67.756 17.1275 67.8328 17.2039C67.9097 17.2802 67.9404 17.3565 67.9404 17.4328C67.9404 17.5092 67.9097 17.5855 67.8328 17.6618C67.756 17.7229 67.6484 17.7534 67.5101 17.7534L63.4531 17.7992C63.1764 17.7992 62.9306 17.7687 62.7154 17.6618C62.5003 17.5702 62.3927 17.3565 62.3927 17.0207V15.9674C62.3927 15.9063 62.3773 15.83 62.362 15.7384C62.3312 15.6621 62.3005 15.601 62.239 15.5552C62.1622 15.5094 62.0854 15.4789 61.9624 15.4484C61.8548 15.4178 61.7165 15.3873 61.5629 15.372C61.5168 15.372 61.486 15.3568 61.4553 15.311C61.4399 15.2652 61.4245 15.2194 61.4399 15.1736C61.4399 15.1278 61.4707 15.082 61.5014 15.0362C61.5321 14.9904 61.5936 14.9599 61.6551 14.9599C61.7473 14.9599 61.8548 14.9599 62.0085 14.9599C62.1468 14.9599 62.3005 14.9599 62.4542 14.9751C62.6078 14.9751 62.7615 14.9904 62.8998 15.0057C63.0535 15.0209 63.1764 15.0362 63.2994 15.0515C63.3455 15.0667 63.3762 15.1125 63.3916 15.1736C63.4223 15.2347 63.4223 15.311 63.3916 15.372C63.3762 15.4178 63.3609 15.4942 63.3609 15.601C63.3455 15.7079 63.3455 15.7995 63.3455 15.8911ZM67.0183 9.58655V14.273C67.0183 14.8072 66.9569 15.2499 66.8493 15.5858C66.7417 15.9216 66.6188 16.1048 66.4958 16.1048C66.3729 16.1048 66.2807 15.9826 66.2192 15.7231C66.1578 15.4636 66.1424 15.1431 66.1424 14.7614V9.76974C66.1424 9.60182 66.127 9.46443 66.0963 9.35758C66.0655 9.25072 66.0041 9.15913 65.9119 9.09807C65.7889 9.02174 65.6506 8.94542 65.497 8.89962C65.3433 8.85383 65.1896 8.80803 65.0513 8.79277C64.9898 8.79277 64.9591 8.76224 64.9437 8.71644C64.9284 8.67065 64.913 8.62485 64.9283 8.57906C64.9283 8.53326 64.9591 8.48747 65.0052 8.45693C65.0513 8.41114 65.0974 8.39587 65.1896 8.39587C65.4508 8.39587 65.7582 8.4264 66.1117 8.4722C66.4651 8.518 66.7725 8.57906 67.0183 8.65538C67.0644 8.67065 67.0952 8.71644 67.1259 8.7775C67.1566 8.83856 67.1566 8.89962 67.1413 8.97595C67.1105 9.0828 67.0798 9.18966 67.0644 9.29652C67.0183 9.37284 67.0183 9.4797 67.0183 9.58655Z" fill="#1E1E1C"/>
</svg>
