<svg width="16" height="16" viewBox="0 0 16 16" fill="none" xmlns="http://www.w3.org/2000/svg">
<path d="M7.20032 7.99997L9.71312 10.736C9.8162 10.8401 9.87402 10.9807 9.87402 11.1272C9.87402 11.2737 9.8162 11.4143 9.71312 11.5184C9.6625 11.5698 9.60216 11.6106 9.53562 11.6385C9.46908 11.6663 9.39766 11.6807 9.32552 11.6807C9.25338 11.6807 9.18196 11.6663 9.11541 11.6385C9.04887 11.6106 8.98854 11.5698 8.93792 11.5184L5.87392 8.39197C5.77098 8.28763 5.71326 8.14695 5.71326 8.00037C5.71326 7.8538 5.77098 7.71312 5.87392 7.60877L8.93792 4.48237C8.98854 4.43097 9.04887 4.39015 9.11542 4.36229C9.18196 4.33443 9.25338 4.32008 9.32552 4.32008C9.39766 4.32008 9.46908 4.33443 9.53562 4.36229C9.60216 4.39015 9.6625 4.43097 9.71312 4.48237C9.8162 4.58648 9.87402 4.72707 9.87402 4.87357C9.87402 5.02008 9.8162 5.16067 9.71312 5.26477L7.20032 7.99997Z" fill="#73777A"/>
</svg>
