<svg width="139" height="26" viewBox="0 0 139 26" fill="none" xmlns="http://www.w3.org/2000/svg">
<g clip-path="url(#clip0_440_4324)">
<path d="M33.7004 25.3998H29.9004C29.2004 25.3998 28.6004 24.7998 28.6004 24.0998C28.6004 23.3998 29.2004 22.7998 29.9004 22.7998H33.7004C34.2004 22.7998 34.6004 22.3998 34.6004 21.9998C34.6004 21.5998 34.3004 21.3998 34.0004 21.3998H31.8004C29.9004 21.3998 28.4004 19.8998 28.4004 17.9998C28.4004 16.0998 28.7004 16.2998 29.3004 15.6998C29.9004 15.0998 30.7004 14.7998 31.6004 14.7998H35.0004C35.7004 14.7998 36.3004 15.3998 36.3004 16.0998C36.3004 16.7998 35.7004 17.3998 35.0004 17.3998H31.6004C31.4004 17.3998 31.2004 17.4998 31.1004 17.5998C31.1004 17.5998 30.9004 17.7998 30.9004 18.0998C30.9004 18.5998 31.3004 18.8998 31.8004 18.8998H34.0004C35.8004 18.8998 37.2004 20.2998 37.2004 22.0998C37.2004 23.8998 35.7004 25.4998 33.8004 25.4998L33.7004 25.3998Z" fill="white"/>
<path d="M48.1004 14.7998H47.5004C46.6004 14.7998 45.7004 15.1998 45.1004 15.6998C44.5004 15.0998 43.6004 14.7998 42.7004 14.7998H42.1004C40.1004 14.7998 38.4004 16.3998 38.4004 18.4998V23.8998C38.4004 24.5998 39.0004 25.0998 39.6004 25.0998C40.2004 25.0998 40.8004 24.4998 40.8004 23.8998V18.4998C40.8004 17.7998 41.3004 17.2998 42.0004 17.2998H42.6004C43.3004 17.2998 43.8004 17.7998 43.8004 18.4998V23.8998C43.8004 24.5998 44.4004 25.0998 45.0004 25.0998C45.6004 25.0998 46.2004 24.4998 46.2004 23.8998V18.4998C46.2004 17.7998 46.7004 17.2998 47.4004 17.2998H48.0004C48.7004 17.2998 49.2004 17.7998 49.2004 18.4998V23.8998C49.2004 24.5998 49.8004 25.0998 50.4004 25.0998C51.0004 25.0998 51.6004 24.4998 51.6004 23.8998V18.4998C51.6004 16.4998 50.0004 14.7998 47.9004 14.7998H48.1004Z" fill="white"/>
<path d="M65.7004 25.1001C65.0004 25.1001 64.4004 24.5001 64.4004 23.9001V18.8001C64.4004 16.7001 66.1004 15.1001 68.2004 15.1001H69.2004C69.9004 15.1001 70.5004 15.7001 70.5004 16.3001C70.5004 16.9001 69.9004 17.5001 69.2004 17.5001H68.2004C67.5004 17.5001 66.9004 18.1001 66.9004 18.7001V23.8001C66.9004 24.5001 66.3004 25.0001 65.6004 25.0001L65.7004 25.1001Z" fill="white"/>
<path d="M76.3004 22.5999H75.5004C74.8004 22.5999 74.3004 21.9999 74.3004 21.2999V17.2999H76.4004C77.1004 17.2999 77.6004 16.6999 77.6004 15.9999C77.6004 15.2999 77.0004 14.6999 76.4004 14.6999H74.3004V13.1999C74.3004 12.4999 73.7004 11.8999 73.1004 11.8999C72.5004 11.8999 71.9004 12.4999 71.9004 13.1999V21.1999C71.9004 23.2999 73.6004 24.9999 75.6004 24.9999H76.4004C77.1004 24.9999 77.6004 24.3999 77.6004 23.6999C77.6004 22.9999 77.0004 22.3999 76.4004 22.3999L76.3004 22.5999Z" fill="white"/>
<path d="M63.2 25.0999H58.1C55.3 25.0999 53 22.7999 53 19.9999C53 17.1999 55.3 14.8999 58.1 14.8999C60.9 14.8999 63.2 17.1999 63.2 19.9999V25.0999ZM58.1 17.4999C56.7 17.4999 55.6 18.5999 55.6 19.9999C55.6 21.3999 56.7 22.4999 58.1 22.4999H60.6V19.9999C60.6 18.5999 59.5 17.4999 58.1 17.4999Z" fill="white"/>
<path d="M82.2998 12.0003C81.9998 12.0003 81.7998 12.0003 81.6998 11.7003C81.5998 11.5003 81.4998 11.3003 81.4998 11.1003C81.4998 10.9003 81.4998 10.6003 81.6998 10.4003C81.7998 10.2003 81.9998 10.1003 82.2998 10.1003H87.1998C87.6998 10.1003 88.0998 10.2003 88.2998 10.4003C88.4998 10.6003 88.5998 11.0003 88.5998 11.5003V12.8003C88.5998 13.4003 88.5998 14.0003 88.3998 14.4003C88.2998 14.8003 87.9998 15.2003 87.5998 15.6003C87.1998 16.0003 86.5998 16.4003 85.7998 16.8003C84.9998 17.2003 83.9998 17.7003 82.6998 18.3003C82.3998 18.4003 82.1998 18.4003 81.8998 18.3003C81.5998 18.2003 81.4998 18.0003 81.3998 17.8003C81.3998 17.7003 81.3998 17.6003 81.2998 17.5003C81.2998 17.4003 81.2998 17.3003 81.2998 17.1003C81.2998 16.9003 81.2998 16.9003 81.3998 16.8003C81.3998 16.7003 81.5998 16.6003 81.6998 16.5003C82.7998 16.0003 83.6998 15.6003 84.2998 15.2003C84.8998 14.9003 85.3998 14.6003 85.6998 14.3003C85.9998 14.0003 86.1998 13.8003 86.1998 13.6003C86.1998 13.4003 86.1998 13.1003 86.1998 12.7003V12.3003C86.1998 12.0003 86.0998 11.9003 85.7998 11.9003H81.9998L82.2998 12.0003ZM83.6998 22.0003C83.6998 20.9003 84.1998 20.1003 85.0998 19.5003C85.9998 18.9003 87.2998 18.7003 88.8998 18.7003C90.4998 18.7003 91.7998 19.0003 92.6998 19.5003C93.5998 20.0003 94.0998 20.9003 94.0998 22.0003C94.0998 23.1003 93.5998 23.9003 92.6998 24.5003C91.7998 25.0003 90.4998 25.3003 88.8998 25.3003C87.2998 25.3003 85.9998 25.0003 85.0998 24.5003C84.1998 24.0003 83.6998 23.1003 83.6998 22.0003ZM91.7998 22.0003C91.7998 21.5003 91.5998 21.2003 91.0998 20.9003C90.5998 20.6003 89.8998 20.5003 88.7998 20.5003C87.6998 20.5003 86.9998 20.6003 86.4998 20.9003C85.9998 21.2003 85.7998 21.6003 85.7998 22.0003C85.7998 22.4003 85.9998 22.8003 86.4998 23.1003C86.9998 23.4003 87.6998 23.5003 88.7998 23.5003C89.8998 23.5003 90.5998 23.4003 91.0998 23.1003C91.5998 22.8003 91.7998 22.4003 91.7998 22.0003ZM93.8998 17.7003C93.8998 18.0003 93.7998 18.2003 93.5998 18.4003C93.3998 18.6003 93.0998 18.6003 92.8998 18.6003C92.6998 18.6003 92.3998 18.6003 92.1998 18.4003C91.9998 18.3003 91.8998 18.0003 91.8998 17.7003V16.6003H89.9998C89.6998 16.6003 89.4998 16.6003 89.3998 16.3003C89.2998 16.1003 89.1998 15.9003 89.1998 15.6003C89.1998 15.3003 89.1998 15.1003 89.3998 15.0003C89.4998 14.8003 89.6998 14.7003 89.9998 14.7003H91.8998V13.4003H90.0998C89.7998 13.4003 89.5998 13.4003 89.4998 13.1003C89.3998 12.8003 89.2998 12.7003 89.2998 12.4003C89.2998 12.1003 89.2998 11.9003 89.4998 11.8003C89.5998 11.6003 89.7998 11.5003 90.0998 11.5003H91.8998V10.2003C91.8998 9.90029 91.9998 9.70029 92.1998 9.50029C92.3998 9.40029 92.6998 9.30029 92.8998 9.30029C93.0998 9.30029 93.3998 9.30029 93.5998 9.50029C93.7998 9.70029 93.8998 9.90029 93.8998 10.2003V17.7003Z" fill="white"/>
<path d="M101.4 12.0003V12.6003C101.4 13.1003 101.4 13.6003 101.6 13.9003C101.8 14.3003 102 14.6003 102.4 14.9003C102.8 15.2003 103.1 15.5003 103.4 15.7003C103.7 15.9003 104 16.2003 104.2 16.3003C104.4 16.5003 104.6 16.7003 104.6 16.9003C104.6 17.1003 104.6 17.4003 104.4 17.6003C104.4 17.6003 104.3 17.8003 104.2 17.8003C104.2 17.8003 104 17.9003 103.9 18.0003C103.8 18.0003 103.7 18.0003 103.5 18.0003C103.4 18.0003 103.2 18.0003 103.1 17.8003C102.9 17.7003 102.7 17.5003 102.4 17.3003C102.1 17.1003 101.8 16.8003 101.5 16.6003C101.1 16.3003 100.8 16.0003 100.7 15.8003C100.5 15.6003 100.4 15.4003 100.4 15.3003C100.4 15.5003 100.2 15.7003 100.1 15.9003C100 16.1003 99.6002 16.4003 99.2002 16.7003C98.9002 17.0003 98.5002 17.2003 98.2002 17.5003C97.9002 17.7003 97.6002 18.0003 97.2002 18.2003C97.0002 18.4003 96.7002 18.4003 96.5002 18.3003C96.3002 18.3003 96.1002 18.1003 95.9002 17.9003C95.8002 17.7003 95.7002 17.5003 95.7002 17.2003C95.7002 16.9003 95.8002 16.7003 96.1002 16.5003C96.5002 16.2003 96.8002 16.0003 97.2002 15.7003C97.6002 15.4003 97.9002 15.2003 98.3002 14.8003C98.7002 14.5003 98.9002 14.2003 99.1002 13.8003C99.3002 13.4003 99.3002 13.0003 99.3002 12.5003V11.8003H96.8002C96.5002 11.8003 96.3002 11.8003 96.2002 11.5003C96.1002 11.3003 96.0002 11.1003 96.0002 10.9003C96.0002 10.7003 96.0002 10.4003 96.2002 10.3003C96.3002 10.1003 96.5002 10.0003 96.8002 10.0003H103.8C104.1 10.0003 104.3 10.0003 104.4 10.3003C104.5 10.6003 104.6 10.7003 104.6 10.9003C104.6 11.1003 104.6 11.4003 104.4 11.5003C104.2 11.6003 104.1 11.8003 103.8 11.8003H101.5L101.4 12.0003ZM98.3002 22.1003C98.3002 21.0003 98.8002 20.2003 99.7002 19.6003C100.6 19.0003 101.9 18.8003 103.5 18.8003C105.1 18.8003 106.4 19.1003 107.3 19.6003C108.2 20.1003 108.7 21.0003 108.7 22.1003C108.7 23.2003 108.2 24.0003 107.3 24.6003C106.4 25.1003 105.1 25.4003 103.5 25.4003C101.9 25.4003 100.6 25.1003 99.7002 24.6003C98.8002 24.1003 98.3002 23.2003 98.3002 22.1003ZM106.4 22.1003C106.4 21.6003 106.2 21.3003 105.7 21.0003C105.2 20.7003 104.5 20.6003 103.4 20.6003C102.3 20.6003 101.6 20.7003 101.1 21.0003C100.6 21.3003 100.4 21.7003 100.4 22.1003C100.4 22.5003 100.6 22.9003 101.1 23.2003C101.6 23.5003 102.3 23.6003 103.4 23.6003C104.5 23.6003 105.2 23.5003 105.7 23.2003C106.2 22.9003 106.4 22.5003 106.4 22.1003ZM106.4 14.9003H104.4C104.1 14.9003 103.9 14.9003 103.8 14.6003C103.7 14.4003 103.6 14.2003 103.6 14.0003C103.6 13.8003 103.6 13.5003 103.8 13.3003C103.9 13.1003 104.1 13.0003 104.4 13.0003H106.4V10.2003C106.4 9.90029 106.5 9.70029 106.7 9.50029C106.9 9.40029 107.2 9.30029 107.5 9.30029C107.8 9.30029 108 9.30029 108.2 9.50029C108.4 9.60029 108.5 9.90029 108.5 10.2003V17.7003C108.5 18.0003 108.4 18.2003 108.2 18.4003C108 18.5003 107.7 18.6003 107.5 18.6003C107.3 18.6003 107 18.6003 106.7 18.4003C106.5 18.3003 106.4 18.0003 106.4 17.7003V14.9003Z" fill="white"/>
<path d="M111.3 12.9002C111 12.9002 110.8 12.9002 110.7 12.6002C110.6 12.4002 110.5 12.2002 110.5 12.0002C110.5 11.8002 110.5 11.5002 110.7 11.4002C110.8 11.2002 111 11.1002 111.3 11.1002H113.9V10.1002C113.9 9.8002 114 9.6002 114.2 9.4002C114.4 9.3002 114.7 9.2002 115 9.2002C115.3 9.2002 115.5 9.2002 115.8 9.4002C116 9.5002 116.1 9.8002 116.1 10.1002V11.1002H118.5C118.8 11.1002 119 11.1002 119.1 11.4002C119.2 11.6002 119.3 11.8002 119.3 12.0002C119.3 12.2002 119.3 12.5002 119.1 12.6002C119 12.8002 118.8 12.9002 118.5 12.9002H116.1V13.5002C116.1 13.9002 116.1 14.3002 116.3 14.6002C116.4 14.9002 116.7 15.2002 117 15.4002C117.7 15.9002 118.4 16.4002 118.9 16.7002C119.1 16.9002 119.3 17.1002 119.3 17.3002C119.3 17.6002 119.3 17.8002 119.1 18.0002C119 18.2002 118.8 18.3002 118.6 18.4002C118.4 18.4002 118.1 18.4002 117.8 18.3002C117.6 18.2002 117.4 18.0002 117.1 17.8002C116.8 17.6002 116.5 17.4002 116.2 17.2002C115.8 16.9002 115.5 16.6002 115.3 16.5002C115.1 16.3002 115 16.1002 115 16.0002C115 16.2002 114.8 16.4002 114.7 16.6002C114.5 16.8002 114.2 17.1002 113.8 17.4002C113.5 17.6002 113.2 17.9002 112.9 18.1002C112.6 18.3002 112.3 18.5002 112 18.7002C111.8 18.9002 111.5 18.9002 111.3 18.7002C111.1 18.6002 110.9 18.5002 110.8 18.3002C110.7 18.1002 110.6 17.9002 110.6 17.6002C110.6 17.3002 110.7 17.1002 111 17.0002C111.4 16.8002 111.7 16.5002 112 16.3002C112.3 16.1002 112.7 15.8002 113.1 15.5002C113.4 15.2002 113.7 15.0002 113.8 14.7002C113.9 14.4002 114 14.0002 114 13.6002V12.9002H111.4H111.3ZM113 22.2002C113 21.1002 113.5 20.4002 114.4 19.8002C115.3 19.2002 116.6 19.0002 118.2 19.0002C119.8 19.0002 121.1 19.3002 122 19.8002C122.9 20.3002 123.4 21.1002 123.4 22.1002C123.4 23.1002 122.9 23.9002 122 24.5002C121.1 25.0002 119.8 25.3002 118.2 25.3002C116.6 25.3002 115.3 25.0002 114.4 24.5002C113.5 24.0002 113 23.2002 113 22.1002V22.2002ZM121.1 22.2002C121.1 21.8002 120.9 21.4002 120.4 21.2002C119.9 21.0002 119.2 20.8002 118.1 20.8002C117 20.8002 116.3 20.9002 115.8 21.2002C115.3 21.4002 115.1 21.8002 115.1 22.2002C115.1 22.6002 115.3 23.0002 115.8 23.2002C116.3 23.4002 117 23.6002 118.1 23.6002C119.2 23.6002 119.9 23.5002 120.4 23.2002C120.9 23.0002 121.1 22.6002 121.1 22.2002ZM121.1 15.6002H119.1C118.8 15.6002 118.6 15.6002 118.5 15.3002C118.4 15.1002 118.3 14.9002 118.3 14.7002C118.3 14.5002 118.3 14.2002 118.5 14.0002C118.7 13.8002 118.8 13.7002 119.1 13.7002H121.1V10.2002C121.1 9.9002 121.2 9.7002 121.4 9.5002C121.6 9.4002 121.9 9.3002 122.2 9.3002C122.5 9.3002 122.7 9.3002 122.9 9.5002C123.1 9.6002 123.2 9.9002 123.2 10.2002V18.1002C123.2 18.4002 123.1 18.7002 122.9 18.8002C122.7 18.9002 122.4 19.0002 122.2 19.0002C122 19.0002 121.7 19.0002 121.4 18.8002C121.2 18.7002 121.1 18.4002 121.1 18.1002V15.6002Z" fill="white"/>
<path d="M125.4 18.8C125.1 18.8 124.9 18.8 124.8 18.5C124.7 18.3 124.6 18.1 124.6 17.9C124.6 17.7 124.6 17.4 124.8 17.3C124.9 17.1 125.1 17 125.4 17H138.3C138.6 17 138.8 17 138.9 17.3C139 17.5 139.1 17.7 139.1 17.9C139.1 18.1 139.1 18.4 138.9 18.5C138.8 18.7 138.6 18.8 138.3 18.8H133V24.4C133 24.7 132.9 24.9 132.7 25.1C132.5 25.2 132.2 25.3 131.9 25.3C131.6 25.3 131.4 25.3 131.1 25.1C130.9 25 130.8 24.7 130.8 24.4V18.8H125.5H125.4ZM127.1 12C126.8 12 126.6 12 126.5 11.7C126.4 11.5 126.3 11.3 126.3 11C126.3 10.7 126.3 10.5 126.5 10.3C126.6 10.1 126.8 10 127.1 10H135.6C136.1 10 136.5 10.1 136.7 10.3C136.9 10.5 137 10.9 137 11.4V12.6C137 13.6 137 14.5 136.8 15.4C136.6 16.3 136.5 17.1 136.2 17.8L134.2 17.5C134.4 16.7 134.6 15.9 134.7 15.1C134.7 14.3 134.8 13.5 134.8 12.7V12.3C134.8 12 134.7 11.9 134.4 11.9H127L127.1 12Z" fill="white"/>
<path d="M12.7 3.1L0 0V25.4H12.7C19.7 25.4 25.4 19.7 25.4 12.7V0L12.7 3.1Z" fill="#E6E7E8"/>
<path d="M0 6V25.4H7.7C8.4 23.7 8.8 21.8 8.8 19.8C8.8 13.7 5.2 8.4 0.1 6H0Z" fill="#ABB8C4"/>
<path d="M12.7996 9.2001C12.7996 12.3001 10.2996 14.8001 7.19961 14.8001C4.09961 14.8001 1.59961 12.3001 1.59961 9.2001C1.59961 6.1001 4.09961 3.6001 7.19961 3.6001C10.2996 3.6001 12.7996 6.1001 12.7996 9.2001Z" fill="white"/>
<path d="M8.7002 9.2002C8.7002 10.0002 8.0002 10.7002 7.2002 10.7002C6.4002 10.7002 5.7002 10.0002 5.7002 9.2002C5.7002 8.4002 6.4002 7.7002 7.2002 7.7002C8.0002 7.7002 8.7002 8.4002 8.7002 9.2002Z" fill="#7F92A3"/>
<path d="M23.7996 9.2001C23.7996 12.3001 21.2996 14.8001 18.1996 14.8001C15.0996 14.8001 12.5996 12.3001 12.5996 9.2001C12.5996 6.1001 15.0996 3.6001 18.1996 3.6001C21.2996 3.6001 23.7996 6.1001 23.7996 9.2001Z" fill="white"/>
<path d="M19.7002 9.2002C19.7002 10.0002 19.0002 10.7002 18.2002 10.7002C17.4002 10.7002 16.7002 10.0002 16.7002 9.2002C16.7002 8.4002 17.4002 7.7002 18.2002 7.7002C19.0002 7.7002 19.7002 8.4002 19.7002 9.2002Z" fill="#7F92A3"/>
</g>
<defs>
<clipPath id="clip0_440_4324">
<rect width="139" height="25.4" fill="white"/>
</clipPath>
</defs>
</svg>
