<svg width="309" height="579" viewBox="0 0 309 579" fill="none" xmlns="http://www.w3.org/2000/svg">
<path d="M291.521 15.9995H17.9336L17.9336 563.175H291.521L291.521 15.9995Z" fill="white"/>
<rect x="17.9336" y="15.9995" width="273.588" height="18.2392" fill="#FAFAFA"/>
<path d="M46.5615 31.7603V32.7993H40.0469V31.8901L43.3076 28.2603C43.7087 27.8136 44.0186 27.4354 44.2373 27.1255C44.4606 26.811 44.6156 26.5308 44.7021 26.2847C44.7933 26.034 44.8389 25.7788 44.8389 25.519C44.8389 25.1909 44.7705 24.8947 44.6338 24.6304C44.5016 24.3615 44.3057 24.1473 44.0459 23.9878C43.7861 23.8283 43.4717 23.7485 43.1025 23.7485C42.6605 23.7485 42.2913 23.8351 41.9951 24.0083C41.7035 24.1769 41.4847 24.4139 41.3389 24.7192C41.193 25.0246 41.1201 25.3755 41.1201 25.772H39.8555C39.8555 25.2114 39.9785 24.6987 40.2246 24.2339C40.4707 23.769 40.8353 23.3999 41.3184 23.1265C41.8014 22.8485 42.3962 22.7095 43.1025 22.7095C43.7314 22.7095 44.2692 22.8211 44.7158 23.0444C45.1624 23.2632 45.5042 23.5731 45.7412 23.9741C45.9827 24.3706 46.1035 24.8354 46.1035 25.3687C46.1035 25.6603 46.0534 25.9565 45.9531 26.2573C45.8574 26.5535 45.723 26.8498 45.5498 27.146C45.3812 27.4422 45.1829 27.7339 44.9551 28.021C44.7318 28.3081 44.4925 28.5907 44.2373 28.8687L41.5713 31.7603H46.5615ZM47.9971 32.1294C47.9971 31.9152 48.0632 31.7352 48.1953 31.5894C48.332 31.439 48.528 31.3638 48.7832 31.3638C49.0384 31.3638 49.2321 31.439 49.3643 31.5894C49.501 31.7352 49.5693 31.9152 49.5693 32.1294C49.5693 32.339 49.501 32.5168 49.3643 32.6626C49.2321 32.8084 49.0384 32.8813 48.7832 32.8813C48.528 32.8813 48.332 32.8084 48.1953 32.6626C48.0632 32.5168 47.9971 32.339 47.9971 32.1294ZM48.0039 26.0933C48.0039 25.8791 48.07 25.6991 48.2021 25.5532C48.3389 25.4028 48.5348 25.3276 48.79 25.3276C49.0452 25.3276 49.2389 25.4028 49.3711 25.5532C49.5078 25.6991 49.5762 25.8791 49.5762 26.0933C49.5762 26.3029 49.5078 26.4806 49.3711 26.6265C49.2389 26.7723 49.0452 26.8452 48.79 26.8452C48.5348 26.8452 48.3389 26.7723 48.2021 26.6265C48.07 26.4806 48.0039 26.3029 48.0039 26.0933ZM57.8271 31.7603V32.7993H51.3125V31.8901L54.5732 28.2603C54.9743 27.8136 55.2842 27.4354 55.5029 27.1255C55.7262 26.811 55.8812 26.5308 55.9678 26.2847C56.0589 26.034 56.1045 25.7788 56.1045 25.519C56.1045 25.1909 56.0361 24.8947 55.8994 24.6304C55.7673 24.3615 55.5713 24.1473 55.3115 23.9878C55.0518 23.8283 54.7373 23.7485 54.3682 23.7485C53.9261 23.7485 53.557 23.8351 53.2607 24.0083C52.9691 24.1769 52.7503 24.4139 52.6045 24.7192C52.4587 25.0246 52.3857 25.3755 52.3857 25.772H51.1211C51.1211 25.2114 51.2441 24.6987 51.4902 24.2339C51.7363 23.769 52.1009 23.3999 52.584 23.1265C53.0671 22.8485 53.6618 22.7095 54.3682 22.7095C54.9971 22.7095 55.5348 22.8211 55.9814 23.0444C56.4281 23.2632 56.7699 23.5731 57.0068 23.9741C57.2484 24.3706 57.3691 24.8354 57.3691 25.3687C57.3691 25.6603 57.319 25.9565 57.2188 26.2573C57.123 26.5535 56.9886 26.8498 56.8154 27.146C56.6468 27.4422 56.4486 27.7339 56.2207 28.021C55.9974 28.3081 55.7581 28.5907 55.5029 28.8687L52.8369 31.7603H57.8271ZM60.4385 31.7397H60.5684C61.2975 31.7397 61.89 31.6372 62.3457 31.4321C62.8014 31.2271 63.1523 30.9513 63.3984 30.605C63.6445 30.2586 63.8132 29.869 63.9043 29.436C63.9954 28.9985 64.041 28.5496 64.041 28.0894V26.5649C64.041 26.1138 63.9886 25.7127 63.8838 25.3618C63.7835 25.0109 63.6423 24.717 63.46 24.48C63.2822 24.243 63.0794 24.063 62.8516 23.9399C62.6237 23.8169 62.3822 23.7554 62.127 23.7554C61.8353 23.7554 61.5732 23.8146 61.3408 23.9331C61.113 24.047 60.9193 24.2088 60.7598 24.4185C60.6048 24.6281 60.4863 24.8742 60.4043 25.1567C60.3223 25.4393 60.2812 25.7469 60.2812 26.0796C60.2812 26.3758 60.3177 26.6629 60.3906 26.9409C60.4635 27.2189 60.5752 27.4696 60.7256 27.6929C60.876 27.9162 61.0628 28.0939 61.2861 28.2261C61.514 28.3537 61.7806 28.4175 62.0859 28.4175C62.3685 28.4175 62.6328 28.3628 62.8789 28.2534C63.1296 28.1395 63.3506 27.9868 63.542 27.7954C63.738 27.5994 63.8929 27.3784 64.0068 27.1323C64.1253 26.8862 64.1937 26.6287 64.2119 26.3599H64.8135C64.8135 26.7381 64.7383 27.1118 64.5879 27.481C64.4421 27.8455 64.237 28.1782 63.9727 28.479C63.7083 28.7798 63.3984 29.0213 63.043 29.2036C62.6875 29.3813 62.3001 29.4702 61.8809 29.4702C61.3887 29.4702 60.9626 29.3745 60.6025 29.1831C60.2425 28.9917 59.9463 28.7365 59.7139 28.4175C59.486 28.0985 59.3151 27.743 59.2012 27.3511C59.0918 26.9546 59.0371 26.5535 59.0371 26.1479C59.0371 25.674 59.1032 25.2297 59.2354 24.8149C59.3675 24.4002 59.5635 24.0356 59.8232 23.7212C60.083 23.4022 60.4043 23.1538 60.7871 22.9761C61.1745 22.7983 61.6211 22.7095 62.127 22.7095C62.6966 22.7095 63.182 22.8234 63.583 23.0513C63.984 23.2791 64.3099 23.5845 64.5605 23.9673C64.8158 24.3501 65.0026 24.7808 65.1211 25.2593C65.2396 25.7378 65.2988 26.23 65.2988 26.7358V27.1938C65.2988 27.7088 65.2646 28.2329 65.1963 28.7661C65.1325 29.2948 65.0072 29.8006 64.8203 30.2837C64.638 30.7668 64.3714 31.1997 64.0205 31.5825C63.6696 31.9608 63.2116 32.2616 62.6465 32.4849C62.0859 32.7036 61.3932 32.813 60.5684 32.813H60.4385V31.7397Z" fill="#2C2C2C"/>
<g clip-path="url(#clip0_501_4516)">
<path d="M226.01 24.2484C225.977 24.2814 225.938 24.3077 225.895 24.3256C225.852 24.3435 225.805 24.3527 225.758 24.3527C225.712 24.3527 225.665 24.3435 225.622 24.3256C225.579 24.3077 225.54 24.2814 225.507 24.2484L223.995 22.737C223.929 22.6701 223.892 22.5797 223.892 22.4856C223.893 22.3915 223.93 22.3013 223.997 22.2348C224.063 22.1682 224.153 22.1307 224.248 22.1304C224.342 22.1301 224.432 22.1671 224.499 22.2332L226.01 23.7446C226.043 23.7776 226.07 23.8169 226.088 23.8601C226.105 23.9033 226.115 23.9497 226.115 23.9965C226.115 24.0432 226.105 24.0896 226.088 24.1328C226.07 24.176 226.043 24.2153 226.01 24.2484ZM218.453 22.2332C218.387 22.1664 218.296 22.1289 218.202 22.1289C218.107 22.1289 218.016 22.1664 217.95 22.2332L216.438 23.7446C216.372 23.8114 216.334 23.902 216.334 23.9965C216.334 24.0909 216.372 24.1815 216.438 24.2484C216.505 24.3152 216.596 24.3527 216.69 24.3527C216.785 24.3527 216.875 24.3152 216.942 24.2484L218.453 22.737C218.487 22.704 218.513 22.6647 218.531 22.6215C218.549 22.5782 218.558 22.5319 218.558 22.4851C218.558 22.4383 218.549 22.392 218.531 22.3488C218.513 22.3056 218.487 22.2663 218.453 22.2332V22.2332ZM225.498 26.91C225.499 26.9463 225.499 26.9827 225.499 27.0192C225.499 27.0557 225.499 27.0922 225.498 27.1285C225.498 27.1333 225.497 27.1381 225.497 27.1428C225.496 27.1748 225.495 27.2067 225.494 27.2386L225.493 27.2418C225.438 28.2972 224.994 29.2947 224.247 30.042C223.5 30.7892 222.502 31.2332 221.447 31.2883L221.444 31.2885C221.412 31.2901 221.38 31.2912 221.348 31.2921C221.343 31.2923 221.338 31.2925 221.334 31.2927C221.297 31.2935 221.261 31.294 221.224 31.294C221.188 31.294 221.151 31.2936 221.115 31.2927C221.11 31.2925 221.106 31.2923 221.101 31.2921C221.069 31.2913 221.037 31.29 221.005 31.2885L221.002 31.2883C219.946 31.2332 218.949 30.7893 218.202 30.042C217.454 29.2947 217.01 28.2972 216.955 27.2418L216.955 27.2385C216.954 27.2067 216.952 27.1748 216.951 27.1428C216.951 27.1381 216.951 27.1333 216.951 27.1285C216.95 27.0922 216.95 27.0557 216.95 27.0192C216.95 26.9827 216.95 26.9463 216.951 26.91C216.951 26.9051 216.951 26.9004 216.951 26.8956C216.952 26.8636 216.953 26.8318 216.955 26.7999L216.955 26.7966C217.01 25.7413 217.454 24.7437 218.202 23.9965C218.949 23.2492 219.946 22.8052 221.002 22.7502L221.005 22.75C221.037 22.7484 221.069 22.7472 221.101 22.7463C221.105 22.7462 221.11 22.7459 221.115 22.7458C221.151 22.7449 221.188 22.7445 221.224 22.7444C221.261 22.7444 221.297 22.7449 221.334 22.7458C221.338 22.7459 221.343 22.7462 221.348 22.7463C221.38 22.7472 221.412 22.7484 221.444 22.75L221.447 22.7502C222.502 22.8052 223.5 23.2492 224.247 23.9965C224.994 24.7437 225.438 25.7413 225.493 26.7966L225.494 26.7999C225.495 26.8318 225.496 26.8636 225.497 26.8956C225.497 26.9004 225.498 26.9051 225.498 26.91H225.498ZM224.074 27.0192C224.074 26.9248 224.037 26.8341 223.97 26.7673C223.903 26.7005 223.812 26.663 223.718 26.663H221.581V24.5256C221.581 24.4311 221.543 24.3405 221.476 24.2737C221.409 24.2069 221.319 24.1694 221.224 24.1694C221.13 24.1694 221.039 24.2069 220.972 24.2737C220.906 24.3405 220.868 24.4311 220.868 24.5256V27.0192C220.868 27.1137 220.906 27.2043 220.972 27.2711C221.039 27.3379 221.13 27.3755 221.224 27.3755H223.718C223.812 27.3755 223.903 27.3379 223.97 27.2711C224.037 27.2043 224.074 27.1137 224.074 27.0192Z" fill="#2C2C2C"/>
</g>
<g clip-path="url(#clip1_501_4516)">
<path d="M236.043 28.0068C235.904 28.0075 235.766 28.0355 235.638 28.0893C235.51 28.1431 235.394 28.2217 235.296 28.3205C235.198 28.4193 235.12 28.5364 235.068 28.6652C235.015 28.7939 234.988 28.9317 234.989 29.0708C234.989 29.6581 235.461 30.1348 236.043 30.1348C236.182 30.1341 236.32 30.106 236.448 30.0521C236.576 29.9983 236.692 29.9197 236.79 29.8209C236.888 29.7221 236.965 29.605 237.018 29.4763C237.07 29.3476 237.097 29.2098 237.096 29.0708C237.096 28.483 236.625 28.0068 236.043 28.0068ZM233.809 26.8142L234.553 27.5664C234.748 27.369 234.98 27.2122 235.236 27.1052C235.492 26.9982 235.766 26.9431 236.043 26.9431C236.32 26.9431 236.595 26.9982 236.851 27.1052C237.106 27.2122 237.338 27.369 237.533 27.5664L238.277 26.8142C237.985 26.5181 237.638 26.283 237.254 26.1225C236.87 25.962 236.459 25.8794 236.043 25.8794C235.627 25.8794 235.216 25.962 234.832 26.1225C234.448 26.283 234.101 26.5181 233.809 26.8142ZM232.319 25.3087L233.064 26.0609C233.453 25.6662 233.917 25.3528 234.428 25.1389C234.94 24.9249 235.488 24.8148 236.043 24.8148C236.597 24.8148 237.146 24.9249 237.657 25.1389C238.169 25.3528 238.632 25.6662 239.022 26.0609L239.767 25.3087C239.28 24.8153 238.701 24.4235 238.061 24.1561C237.422 23.8886 236.736 23.7509 236.043 23.7509C235.35 23.7509 234.664 23.8886 234.025 24.1561C233.385 24.4235 232.806 24.8153 232.319 25.3087V25.3087ZM230.829 23.8042L231.574 24.5565C232.158 23.9643 232.853 23.494 233.621 23.1731C234.388 22.8521 235.211 22.6869 236.043 22.6869C236.874 22.6869 237.698 22.8521 238.465 23.1731C239.232 23.494 239.928 23.9643 240.512 24.5565L241.256 23.8042C240.575 23.1134 239.764 22.5648 238.868 22.1903C237.973 21.8159 237.013 21.623 236.043 21.623C235.073 21.623 234.112 21.8159 233.217 22.1903C232.322 22.5648 231.51 23.1134 230.829 23.8042V23.8042Z" fill="#2C2C2C"/>
</g>
<path d="M245.163 29.4888H246.113V31.1987H245.163V29.4888Z" fill="#2C2C2C"/>
<path d="M247.205 27.5889H248.155V31.1987H247.205V27.5889Z" fill="#2C2C2C"/>
<path d="M249.248 25.689H250.198V31.1985H249.248V25.689Z" fill="#2C2C2C"/>
<path d="M251.29 23.7891H252.24V31.1985H251.29V23.7891Z" fill="#2C2C2C"/>
<path d="M253.333 22.0791H254.283V31.1987H253.333V22.0791Z" fill="#2C2C2C"/>
<path d="M264.14 31.6422H258.979C258.695 31.6422 258.463 31.4099 258.463 31.126V22.3516C258.463 22.0677 258.695 21.8354 258.979 21.8354H264.14C264.424 21.8354 264.657 22.0677 264.657 22.3516V31.126C264.657 31.4099 264.424 31.6422 264.14 31.6422Z" fill="#CFD8DC"/>
<path d="M262.592 23.642H260.528C260.373 23.642 260.27 23.5388 260.27 23.3839V21.5774C260.27 21.4226 260.373 21.3193 260.528 21.3193H262.592C262.747 21.3193 262.85 21.4226 262.85 21.5774V23.3839C262.85 23.5388 262.747 23.642 262.592 23.642Z" fill="#CFD8DC"/>
<path d="M264.14 31.6422H258.979C258.695 31.6422 258.463 31.4099 258.463 31.126V26.2227H264.657V31.126C264.657 31.4099 264.424 31.6422 264.14 31.6422Z" fill="#6B6B6B"/>
<g clip-path="url(#clip2_501_4516)">
<path d="M115.996 171.793H111.28C110.411 171.793 109.666 171.057 109.666 170.198C109.666 169.339 110.411 168.603 111.28 168.603H115.996C116.616 168.603 117.113 168.113 117.113 167.622C117.113 167.131 116.74 166.886 116.368 166.886H113.638C111.28 166.886 109.418 165.046 109.418 162.715C109.418 160.384 109.79 160.63 110.535 159.894C111.28 159.158 112.272 158.79 113.389 158.79H117.609C118.478 158.79 119.223 159.526 119.223 160.384C119.223 161.243 118.478 161.979 117.609 161.979H113.389C113.141 161.979 112.893 162.102 112.769 162.224C112.769 162.224 112.521 162.47 112.521 162.838C112.521 163.451 113.017 163.819 113.638 163.819H116.368C118.602 163.819 120.34 165.536 120.34 167.745C120.34 169.953 118.478 171.915 116.12 171.915L115.996 171.793Z" fill="#8B5CF6"/>
<path d="M133.868 158.79H133.123C132.006 158.79 130.889 159.28 130.144 159.894C129.4 159.158 128.283 158.79 127.166 158.79H126.421C123.939 158.79 121.829 160.752 121.829 163.328V169.953C121.829 170.811 122.574 171.425 123.318 171.425C124.063 171.425 124.808 170.689 124.808 169.953V163.328C124.808 162.47 125.428 161.856 126.297 161.856H127.042C127.91 161.856 128.531 162.47 128.531 163.328V169.953C128.531 170.811 129.276 171.425 130.02 171.425C130.765 171.425 131.51 170.689 131.51 169.953V163.328C131.51 162.47 132.13 161.856 132.999 161.856H133.744C134.612 161.856 135.233 162.47 135.233 163.328V169.953C135.233 170.811 135.978 171.425 136.722 171.425C137.467 171.425 138.212 170.689 138.212 169.953V163.328C138.212 160.875 136.226 158.79 133.62 158.79H133.868Z" fill="#8B5CF6"/>
<path d="M155.711 171.424C154.842 171.424 154.098 170.688 154.098 169.952V163.696C154.098 161.12 156.208 159.157 158.814 159.157H160.055C160.924 159.157 161.668 159.893 161.668 160.629C161.668 161.365 160.924 162.101 160.055 162.101H158.814C157.945 162.101 157.2 162.837 157.2 163.573V169.83C157.2 170.688 156.456 171.302 155.587 171.302L155.711 171.424Z" fill="#8B5CF6"/>
<path d="M168.866 168.358H167.873C167.004 168.358 166.384 167.622 166.384 166.763V161.856H168.99C169.859 161.856 170.48 161.12 170.48 160.261C170.48 159.403 169.735 158.667 168.99 158.667H166.384V156.827C166.384 155.968 165.639 155.232 164.895 155.232C164.15 155.232 163.405 155.968 163.405 156.827V166.64C163.405 169.217 165.515 171.302 167.997 171.302H168.99C169.859 171.302 170.48 170.566 170.48 169.707C170.48 168.848 169.735 168.112 168.99 168.112L168.866 168.358Z" fill="#8B5CF6"/>
<path d="M152.608 171.425H146.279C142.804 171.425 139.949 168.603 139.949 165.168C139.949 161.734 142.804 158.912 146.279 158.912C149.754 158.912 152.608 161.734 152.608 165.168V171.425ZM146.279 162.102C144.541 162.102 143.176 163.451 143.176 165.168C143.176 166.886 144.541 168.235 146.279 168.235H149.382V165.168C149.382 163.451 148.016 162.102 146.279 162.102Z" fill="#8B5CF6"/>
<path d="M176.313 155.354C175.941 155.354 175.693 155.354 175.569 154.986C175.445 154.741 175.32 154.495 175.32 154.25C175.32 154.005 175.32 153.637 175.569 153.391C175.693 153.146 175.941 153.023 176.313 153.023H182.395C183.015 153.023 183.512 153.146 183.76 153.391C184.008 153.637 184.132 154.127 184.132 154.741V156.336C184.132 157.072 184.132 157.808 183.884 158.298C183.76 158.789 183.388 159.28 182.891 159.77C182.395 160.261 181.65 160.752 180.657 161.242C179.664 161.733 178.423 162.346 176.81 163.082C176.437 163.205 176.189 163.205 175.817 163.082C175.445 162.96 175.32 162.714 175.196 162.469C175.196 162.346 175.196 162.224 175.072 162.101C175.072 161.978 175.072 161.856 175.072 161.61C175.072 161.365 175.072 161.365 175.196 161.242C175.196 161.12 175.445 160.997 175.569 160.874C176.934 160.261 178.051 159.77 178.796 159.28C179.54 158.912 180.161 158.544 180.533 158.176C180.905 157.808 181.154 157.562 181.154 157.317C181.154 157.072 181.154 156.704 181.154 156.213V155.722C181.154 155.354 181.03 155.231 180.657 155.231H175.941L176.313 155.354ZM178.051 167.621C178.051 166.272 178.671 165.291 179.788 164.555C180.905 163.818 182.519 163.573 184.505 163.573C186.49 163.573 188.104 163.941 189.221 164.555C190.338 165.168 190.958 166.272 190.958 167.621C190.958 168.971 190.338 169.952 189.221 170.688C188.104 171.301 186.49 171.669 184.505 171.669C182.519 171.669 180.905 171.301 179.788 170.688C178.671 170.075 178.051 168.971 178.051 167.621ZM188.104 167.621C188.104 167.008 187.856 166.64 187.235 166.272C186.614 165.904 185.746 165.781 184.38 165.781C183.015 165.781 182.147 165.904 181.526 166.272C180.905 166.64 180.657 167.131 180.657 167.621C180.657 168.112 180.905 168.603 181.526 168.971C182.147 169.339 183.015 169.461 184.38 169.461C185.746 169.461 186.614 169.339 187.235 168.971C187.856 168.603 188.104 168.112 188.104 167.621ZM190.71 162.346C190.71 162.714 190.586 162.96 190.338 163.205C190.09 163.45 189.717 163.45 189.469 163.45C189.221 163.45 188.848 163.45 188.6 163.205C188.352 163.082 188.228 162.714 188.228 162.346V160.997H185.87C185.497 160.997 185.249 160.997 185.125 160.629C185.001 160.384 184.877 160.138 184.877 159.77C184.877 159.402 184.877 159.157 185.125 159.034C185.249 158.789 185.497 158.666 185.87 158.666H188.228V157.072H185.994C185.622 157.072 185.373 157.072 185.249 156.704C185.125 156.336 185.001 156.213 185.001 155.845C185.001 155.477 185.001 155.231 185.249 155.109C185.373 154.863 185.622 154.741 185.994 154.741H188.228V153.146C188.228 152.778 188.352 152.533 188.6 152.287C188.848 152.165 189.221 152.042 189.469 152.042C189.717 152.042 190.09 152.042 190.338 152.287C190.586 152.533 190.71 152.778 190.71 153.146V162.346V162.346Z" fill="#333333"/>
<path d="M200.019 155.354V156.09C200.019 156.704 200.019 157.317 200.267 157.685C200.515 158.176 200.763 158.544 201.26 158.912C201.756 159.28 202.128 159.648 202.501 159.893C202.873 160.138 203.245 160.506 203.494 160.629C203.742 160.874 203.99 161.12 203.99 161.365C203.99 161.61 203.99 161.978 203.742 162.224C203.742 162.224 203.618 162.469 203.494 162.469C203.494 162.469 203.245 162.592 203.121 162.714C202.997 162.714 202.873 162.714 202.625 162.714C202.501 162.714 202.253 162.714 202.128 162.469C201.88 162.346 201.632 162.101 201.26 161.856C200.887 161.61 200.515 161.242 200.143 160.997C199.646 160.629 199.274 160.261 199.15 160.016C198.902 159.77 198.777 159.525 198.777 159.402C198.777 159.648 198.529 159.893 198.405 160.138C198.281 160.384 197.785 160.752 197.288 161.12C196.916 161.488 196.419 161.733 196.047 162.101C195.675 162.346 195.302 162.714 194.806 162.96C194.558 163.205 194.185 163.205 193.937 163.082C193.689 163.082 193.441 162.837 193.193 162.592C193.068 162.346 192.944 162.101 192.944 161.733C192.944 161.365 193.068 161.12 193.441 160.874C193.937 160.506 194.31 160.261 194.806 159.893C195.302 159.525 195.675 159.28 196.171 158.789C196.668 158.421 196.916 158.053 197.164 157.562C197.412 157.072 197.412 156.581 197.412 155.967V155.109H194.31C193.937 155.109 193.689 155.109 193.565 154.741C193.441 154.495 193.317 154.25 193.317 154.005C193.317 153.759 193.317 153.391 193.565 153.269C193.689 153.023 193.937 152.901 194.31 152.901H202.997C203.37 152.901 203.618 152.901 203.742 153.269C203.866 153.637 203.99 153.759 203.99 154.005C203.99 154.25 203.99 154.618 203.742 154.741C203.494 154.863 203.37 155.109 202.997 155.109H200.143L200.019 155.354ZM196.171 167.744C196.171 166.395 196.792 165.413 197.909 164.677C199.026 163.941 200.639 163.696 202.625 163.696C204.611 163.696 206.224 164.064 207.341 164.677C208.458 165.291 209.079 166.395 209.079 167.744C209.079 169.093 208.458 170.075 207.341 170.811C206.224 171.424 204.611 171.792 202.625 171.792C200.639 171.792 199.026 171.424 197.909 170.811C196.792 170.197 196.171 169.093 196.171 167.744ZM206.224 167.744C206.224 167.131 205.976 166.763 205.355 166.395C204.735 166.027 203.866 165.904 202.501 165.904C201.136 165.904 200.267 166.027 199.646 166.395C199.026 166.763 198.777 167.253 198.777 167.744C198.777 168.235 199.026 168.725 199.646 169.093C200.267 169.461 201.136 169.584 202.501 169.584C203.866 169.584 204.735 169.461 205.355 169.093C205.976 168.725 206.224 168.235 206.224 167.744ZM206.224 158.912H203.742C203.37 158.912 203.121 158.912 202.997 158.544C202.873 158.298 202.749 158.053 202.749 157.808C202.749 157.562 202.749 157.194 202.997 156.949C203.121 156.704 203.37 156.581 203.742 156.581H206.224V153.146C206.224 152.778 206.348 152.533 206.596 152.287C206.845 152.165 207.217 152.042 207.589 152.042C207.962 152.042 208.21 152.042 208.458 152.287C208.706 152.41 208.83 152.778 208.83 153.146V162.346C208.83 162.714 208.706 162.96 208.458 163.205C208.21 163.328 207.837 163.45 207.589 163.45C207.341 163.45 206.969 163.45 206.596 163.205C206.348 163.082 206.224 162.714 206.224 162.346V158.912Z" fill="#333333"/>
<path d="M212.305 156.458C211.933 156.458 211.685 156.458 211.561 156.09C211.437 155.845 211.313 155.6 211.313 155.354C211.313 155.109 211.312 154.741 211.561 154.618C211.685 154.373 211.933 154.25 212.305 154.25H215.532V153.023C215.532 152.655 215.656 152.41 215.905 152.165C216.153 152.042 216.525 151.919 216.897 151.919C217.27 151.919 217.518 151.919 217.89 152.165C218.139 152.287 218.263 152.655 218.263 153.023V154.25H221.241C221.614 154.25 221.862 154.25 221.986 154.618C222.11 154.864 222.234 155.109 222.234 155.354C222.234 155.6 222.234 155.968 221.986 156.09C221.862 156.336 221.614 156.458 221.241 156.458H218.263V157.194C218.263 157.685 218.263 158.176 218.511 158.544C218.635 158.912 219.007 159.28 219.38 159.525C220.248 160.138 221.117 160.752 221.738 161.12C221.986 161.365 222.234 161.61 222.234 161.856C222.234 162.224 222.234 162.469 221.986 162.715C221.862 162.96 221.614 163.083 221.365 163.205C221.117 163.205 220.745 163.205 220.372 163.083C220.124 162.96 219.876 162.715 219.504 162.469C219.131 162.224 218.759 161.979 218.387 161.733C217.89 161.365 217.518 160.997 217.27 160.874C217.022 160.629 216.897 160.384 216.897 160.261C216.897 160.506 216.649 160.752 216.525 160.997C216.277 161.242 215.905 161.61 215.408 161.979C215.036 162.224 214.663 162.592 214.291 162.837C213.919 163.083 213.546 163.328 213.174 163.573C212.926 163.819 212.554 163.819 212.305 163.573C212.057 163.451 211.809 163.328 211.685 163.083C211.561 162.837 211.437 162.592 211.437 162.224C211.437 161.856 211.561 161.61 211.933 161.488C212.429 161.242 212.802 160.874 213.174 160.629C213.546 160.384 214.043 160.016 214.539 159.648C214.912 159.28 215.284 159.034 215.408 158.666C215.532 158.298 215.656 157.808 215.656 157.317V156.458H212.429H212.305ZM214.415 167.867C214.415 166.517 215.036 165.659 216.153 164.923C217.27 164.187 218.883 163.941 220.869 163.941C222.855 163.941 224.468 164.309 225.585 164.923C226.702 165.536 227.323 166.517 227.323 167.744C227.323 168.971 226.702 169.952 225.585 170.688C224.468 171.302 222.855 171.67 220.869 171.67C218.883 171.67 217.27 171.302 216.153 170.688C215.036 170.075 214.415 169.093 214.415 167.744V167.867ZM224.468 167.867C224.468 167.376 224.22 166.885 223.599 166.64C222.979 166.395 222.11 166.149 220.745 166.149C219.38 166.149 218.511 166.272 217.89 166.64C217.27 166.885 217.022 167.376 217.022 167.867C217.022 168.357 217.27 168.848 217.89 169.093C218.511 169.339 219.38 169.584 220.745 169.584C222.11 169.584 222.979 169.461 223.599 169.093C224.22 168.848 224.468 168.357 224.468 167.867ZM224.468 159.77H221.986C221.614 159.77 221.365 159.77 221.241 159.402C221.117 159.157 220.993 158.912 220.993 158.666C220.993 158.421 220.993 158.053 221.241 157.808C221.489 157.562 221.614 157.44 221.986 157.44H224.468V153.146C224.468 152.778 224.592 152.533 224.84 152.287C225.089 152.165 225.461 152.042 225.833 152.042C226.206 152.042 226.454 152.042 226.702 152.287C226.95 152.41 227.074 152.778 227.074 153.146V162.837C227.074 163.205 226.95 163.573 226.702 163.696C226.454 163.819 226.082 163.941 225.833 163.941C225.585 163.941 225.213 163.941 224.84 163.696C224.592 163.573 224.468 163.205 224.468 162.837V159.77V159.77Z" fill="#333333"/>
<path d="M229.804 163.696C229.432 163.696 229.184 163.696 229.06 163.328C228.936 163.083 228.812 162.837 228.812 162.592C228.812 162.347 228.812 161.979 229.06 161.856C229.184 161.611 229.432 161.488 229.804 161.488H245.815C246.187 161.488 246.435 161.488 246.559 161.856C246.683 162.101 246.807 162.347 246.807 162.592C246.807 162.837 246.807 163.205 246.559 163.328C246.435 163.573 246.187 163.696 245.815 163.696H239.237V170.566C239.237 170.934 239.113 171.179 238.864 171.424C238.616 171.547 238.244 171.67 237.872 171.67C237.499 171.67 237.251 171.67 236.879 171.424C236.63 171.302 236.506 170.934 236.506 170.566V163.696H229.929H229.804ZM231.914 155.354C231.542 155.354 231.294 155.354 231.17 154.986C231.045 154.741 230.921 154.496 230.921 154.128C230.921 153.76 230.921 153.514 231.17 153.269C231.294 153.024 231.542 152.901 231.914 152.901H242.464C243.084 152.901 243.581 153.024 243.829 153.269C244.077 153.514 244.201 154.005 244.201 154.618V156.09C244.201 157.317 244.201 158.421 243.953 159.525C243.705 160.629 243.581 161.611 243.208 162.469L240.726 162.101C240.974 161.12 241.222 160.139 241.347 159.157C241.347 158.176 241.471 157.194 241.471 156.213V155.722C241.471 155.354 241.347 155.232 240.974 155.232H231.79L231.914 155.354Z" fill="#333333"/>
<path d="M89.9328 144.437L74.1709 140.634V171.792H89.9328C98.6205 171.792 105.695 164.8 105.695 156.213V140.634L89.9328 144.437Z" fill="#8B5CF6"/>
<path d="M74.1709 147.994V171.792H83.7273C84.5961 169.707 85.0925 167.376 85.0925 164.923C85.0925 157.44 80.6246 150.938 74.295 147.994H74.1709Z" fill="#5B21B6"/>
<path d="M90.0565 151.919C90.0565 155.722 86.9538 158.789 83.1064 158.789C79.259 158.789 76.1562 155.722 76.1562 151.919C76.1562 148.117 79.259 145.05 83.1064 145.05C86.9538 145.05 90.0565 148.117 90.0565 151.919Z" fill="white"/>
<path d="M84.9684 151.92C84.9684 152.901 84.0996 153.76 83.1068 153.76C82.1139 153.76 81.2451 152.901 81.2451 151.92C81.2451 150.938 82.1139 150.08 83.1068 150.08C84.0996 150.08 84.9684 150.938 84.9684 151.92Z" fill="#5B21B6"/>
<path d="M103.709 151.919C103.709 155.722 100.606 158.789 96.7587 158.789C92.9113 158.789 89.8086 155.722 89.8086 151.919C89.8086 148.117 92.9113 145.05 96.7587 145.05C100.606 145.05 103.709 148.117 103.709 151.919V151.919Z" fill="white"/>
<path d="M98.6207 151.92C98.6207 152.901 97.752 153.76 96.7591 153.76C95.7662 153.76 94.8975 152.901 94.8975 151.92C94.8975 150.938 95.7662 150.08 96.7591 150.08C97.752 150.08 98.6207 150.938 98.6207 151.92Z" fill="#5B21B6"/>
</g>
<path d="M259.983 0.800293L49.4723 0.800293C37.0809 0.814373 25.2011 5.74304 16.4391 14.5051C7.67713 23.2671 2.74845 35.1469 2.73437 47.5382L2.73437 531.636C2.74845 544.028 7.67713 555.908 16.4391 564.67C25.2011 573.432 37.0809 578.36 49.4723 578.374H259.983C272.374 578.36 284.254 573.432 293.016 564.67C301.778 555.908 306.707 544.028 306.721 531.636L306.721 47.5382C306.707 35.1469 301.778 23.2671 293.016 14.5051C284.254 5.74304 272.374 0.814373 259.983 0.800293ZM291.521 531.636C291.521 540.001 288.199 548.023 282.284 553.938C276.369 559.852 268.347 563.175 259.983 563.175H49.4723C41.1077 563.175 33.0858 559.852 27.1711 553.938C21.2565 548.023 17.9337 540.001 17.9337 531.636L17.9337 47.5382C17.9337 39.1736 21.2565 31.1517 27.1711 25.237C33.0858 19.3224 41.1077 15.9996 49.4723 15.9996L135.531 15.9996C136.025 15.9996 136.498 16.1958 136.847 16.545C137.197 16.8941 137.393 17.3677 137.393 17.8615C137.393 22.3784 139.187 26.7102 142.381 29.9041C145.575 33.098 149.907 34.8924 154.424 34.8924H155.032C159.542 34.8924 163.868 33.1033 167.061 29.9176C170.254 26.7319 172.052 22.4098 172.062 17.8995V17.8995C172.062 17.4057 172.259 16.9321 172.608 16.5829C172.957 16.2338 173.43 16.0376 173.924 16.0376L259.983 16.0376C268.341 16.0376 276.357 19.3552 282.271 25.2616C288.184 31.168 291.511 39.1802 291.521 47.5382L291.521 531.636Z" fill="#333333"/>
<path d="M309 119.355H304.44V170.273H309V119.355Z" fill="#333333"/>
<path d="M5.0139 120.115H0.454102L0.454102 155.073H5.0139L5.0139 120.115Z" fill="#333333"/>
<path d="M5.0139 167.993H0.454102L0.454102 203.711H5.0139L5.0139 167.993Z" fill="#333333"/>
<defs>
<clipPath id="clip0_501_4516">
<rect width="11.3995" height="11.3995" fill="white" transform="translate(215.524 21.3193)"/>
</clipPath>
<clipPath id="clip1_501_4516">
<rect width="10.6395" height="10.6395" fill="white" transform="translate(230.724 20.5591)"/>
</clipPath>
<clipPath id="clip2_501_4516">
<rect width="172.512" height="31.1586" fill="white" transform="translate(74.1709 140.634)"/>
</clipPath>
</defs>
</svg>
