<svg width="16" height="16" viewBox="0 0 16 16" fill="none" xmlns="http://www.w3.org/2000/svg">
<path fill-rule="evenodd" clip-rule="evenodd" d="M8 16C7.69695 16 7.40631 15.8784 7.19202 15.6621C6.97774 15.4457 6.85735 15.1523 6.85735 14.8463L6.85735 3.94079L1.95309 8.89476C1.73853 9.1114 1.44753 9.2331 1.14409 9.2331C0.840662 9.2331 0.549657 9.1114 0.335097 8.89476C0.120538 8.67813 -3.32892e-07 8.38431 -3.46284e-07 8.07795C-3.59676e-07 7.77158 0.120538 7.47776 0.335097 7.26113L7.191 0.338942C7.29715 0.231502 7.42324 0.146262 7.56206 0.0881011C7.70088 0.0299393 7.8497 6.10553e-07 8 6.03983e-07C8.1503 5.97413e-07 8.29912 0.0299393 8.43794 0.088101C8.57676 0.146262 8.70285 0.231502 8.809 0.338942L15.6649 7.26113C15.8795 7.47776 16 7.77158 16 8.07794C16 8.38431 15.8795 8.67813 15.6649 8.89476C15.4503 9.1114 15.1593 9.2331 14.8559 9.2331C14.5525 9.2331 14.2615 9.1114 14.0469 8.89476L9.14265 3.94079L9.14265 14.8463C9.14265 15.1523 9.02227 15.4457 8.80798 15.6621C8.59369 15.8784 8.30305 16 8 16Z" fill="#36363D"/>
</svg>
